<svg width="20" height="20" viewBox="0 0 20 20" fill="none" xmlns="http://www.w3.org/2000/svg">
<g id="brush-01" clip-path="url(#clip0_6844_5794)">
<path id="Icon" d="M7.50006 9.35183L10.6482 12.5M6.64579 17.479C5.50676 18.6181 3.33341 18.3333 1.66675 18.3333C2.521 16.6666 1.38197 14.4933 2.521 13.3543C3.66003 12.2152 5.50676 12.2152 6.64579 13.3543C7.78482 14.4933 7.78482 16.34 6.64579 17.479ZM9.93475 13.2705L17.549 5.0471C18.2197 4.32279 18.198 3.19797 17.5 2.49998C16.802 1.80199 15.6772 1.78036 14.9529 2.45101L6.72953 10.0653C6.30458 10.4587 6.09211 10.6555 5.96819 10.8653C5.67103 11.3684 5.65908 11.9904 5.93667 12.5046C6.05244 12.719 6.25719 12.9238 6.6667 13.3333C7.07621 13.7428 7.28097 13.9476 7.4954 14.0633C8.00958 14.3409 8.63159 14.329 9.13473 14.0318C9.34455 13.9079 9.54128 13.6954 9.93475 13.2705Z" stroke="#475467" stroke-width="2" stroke-linecap="round" stroke-linejoin="round"/>
</g>
<defs>
<clipPath id="clip0_6844_5794">
<rect width="20" height="20" fill="white"/>
</clipPath>
</defs>
</svg>
