<svg width="20" height="20" viewBox="0 0 20 20" fill="none" xmlns="http://www.w3.org/2000/svg">
<g id="laptop-02">
<path id="Icon" d="M17.5001 13.3335V6.00016C17.5001 5.06674 17.5001 4.60003 17.3184 4.24351C17.1586 3.92991 16.9037 3.67494 16.5901 3.51515C16.2335 3.3335 15.7668 3.3335 14.8334 3.3335H5.16675C4.23333 3.3335 3.76662 3.3335 3.4101 3.51515C3.09649 3.67494 2.84153 3.92991 2.68174 4.24351C2.50008 4.60003 2.50008 5.06674 2.50008 6.00016V13.3335M3.88897 16.6668H16.1112C16.6278 16.6668 16.8862 16.6668 17.0981 16.61C17.6733 16.4559 18.1225 16.0067 18.2766 15.4315C18.3334 15.2196 18.3334 14.9613 18.3334 14.4446C18.3334 14.1863 18.3334 14.0571 18.305 13.9511C18.228 13.6636 18.0033 13.4389 17.7158 13.3619C17.6098 13.3335 17.4806 13.3335 17.2223 13.3335H2.77786C2.51953 13.3335 2.39037 13.3335 2.2844 13.3619C1.99682 13.4389 1.7722 13.6636 1.69514 13.9511C1.66675 14.0571 1.66675 14.1863 1.66675 14.4446C1.66675 14.9613 1.66675 15.2196 1.72354 15.4315C1.87765 16.0067 2.3269 16.4559 2.90205 16.61C3.11399 16.6668 3.37232 16.6668 3.88897 16.6668Z" stroke="#475467" stroke-width="2" stroke-linecap="round" stroke-linejoin="round"/>
</g>
</svg>
