<svg width="20" height="20" viewBox="0 0 20 20" fill="none" xmlns="http://www.w3.org/2000/svg">
<g id="pen-tool-02">
<path id="Icon" d="M10.8334 4.99987L5.41827 6.0829C5.11577 6.1434 4.96452 6.17365 4.84135 6.24721C4.73246 6.31224 4.63985 6.40127 4.57058 6.50751C4.49222 6.62768 4.45603 6.77762 4.38364 7.07749L1.66675 18.3332M1.66675 18.3332L12.9225 15.6163C13.2223 15.5439 13.3723 15.5077 13.4924 15.4294C13.5987 15.3601 13.6877 15.2675 13.7527 15.1586C13.8263 15.0354 13.8566 14.8842 13.9171 14.5817L15.0001 9.16654M1.66675 18.3332L7.98841 12.0115M17.3906 6.55707L13.4429 2.60935C13.1129 2.27934 12.9479 2.11433 12.7576 2.0525C12.5902 1.99812 12.4099 1.99812 12.2426 2.05251C12.0523 2.11433 11.8873 2.27934 11.5573 2.60935L10.9429 3.22373C10.6129 3.55375 10.4479 3.71875 10.386 3.90903C10.3317 4.0764 10.3317 4.25669 10.386 4.42406C10.4479 4.61433 10.6129 4.77934 10.9429 5.10935L14.8906 9.05707C15.2206 9.38708 15.3856 9.55209 15.5759 9.61391C15.7433 9.66829 15.9236 9.66829 16.0909 9.61391C16.2812 9.55209 16.4462 9.38708 16.7762 9.05706L17.3906 8.44268C17.7206 8.11267 17.8856 7.94766 17.9474 7.75739C18.0018 7.59002 18.0018 7.40973 17.9474 7.24236C17.8856 7.05209 17.7206 6.88708 17.3906 6.55707ZM9.16675 9.16654C10.0872 9.16654 10.8334 9.91273 10.8334 10.8332C10.8334 11.7537 10.0872 12.4999 9.16675 12.4999C8.24627 12.4999 7.50008 11.7537 7.50008 10.8332C7.50008 9.91273 8.24627 9.16654 9.16675 9.16654Z" stroke="#475467" stroke-width="2" stroke-linecap="round" stroke-linejoin="round"/>
</g>
</svg>
