<svg width="135" height="48" viewBox="0 0 135 48" fill="none" xmlns="http://www.w3.org/2000/svg"><path d="M35.3911 23.9669C35.3911 20.32 37.795 17.6405 41.2013 17.6405C44.0557 17.6405 46.2097 19.5202 46.8271 22.2922H44.5738C44.0557 20.8225 42.8204 19.855 41.2013 19.855C39.0307 19.855 37.5617 21.5855 37.5617 23.9669C37.5617 26.3484 39.0307 28.0975 41.2013 28.0975C42.8204 28.0975 44.0557 27.1109 44.5738 25.6416H46.8271C46.2097 28.4137 44.0557 30.293 41.2013 30.293C37.795 30.293 35.3911 27.6139 35.3911 23.9669Z" fill="#0044DD"/><path d="M54.7096 25.4552C54.7096 23.8363 53.7413 22.6832 52.2886 22.6832C50.836 22.6832 49.8506 23.8363 49.8506 25.4552C49.8506 27.0742 50.836 28.2277 52.2886 28.2277C53.7413 28.2277 54.7096 27.0742 54.7096 25.4552ZM47.8477 25.4552C47.8477 22.6646 49.6845 20.6175 52.2886 20.6175C54.8931 20.6175 56.7296 22.6646 56.7296 25.4552C56.7296 28.2463 54.8931 30.293 52.2886 30.293C49.6845 30.293 47.8477 28.2463 47.8477 25.4552Z" fill="#0044DD"/><path d="M58.0337 25.2689C58.0337 22.1993 59.6695 20.6175 62.1068 20.6175C64.5448 20.6175 66.1806 22.1802 66.1806 25.2689V30.0508H64.1936V25.2689C64.1936 23.5202 63.3591 22.6828 62.1068 22.6828C60.8551 22.6828 60.0204 23.5202 60.0204 25.2689V30.0508H58.0337V25.2689Z" fill="#0044DD"/><path d="M66.8501 20.8593H69.0203L71.3074 28.0231L73.5944 20.8593H75.715L72.4759 30.0508H70.0888L66.8501 20.8593Z" fill="#0044DD"/><path d="M82.8448 24.4685C82.5277 23.2402 81.6258 22.6264 80.5411 22.6264C79.4222 22.6264 78.554 23.2592 78.237 24.4685H82.8448ZM76.1001 25.4543C76.1001 22.6636 77.9366 20.617 80.5411 20.617C83.1452 20.617 84.9479 22.6636 84.9479 25.4543V26.2358H78.1869C78.4539 27.5762 79.3721 28.2829 80.5411 28.2829C81.4256 28.2829 82.0768 28.0035 82.494 27.408H84.6145C83.9967 29.1571 82.494 30.292 80.5411 30.292C77.9366 30.292 76.1001 28.2453 76.1001 25.4543Z" fill="#0044DD"/><path d="M86.2524 24.7113C86.2524 21.9389 87.721 20.6175 89.8753 20.6175C92.0289 20.6175 93.4811 21.9389 93.4811 24.7481V24.8043H91.5111V24.7113C91.5111 23.2226 90.8432 22.6832 89.8753 22.6832C88.9066 22.6832 88.2387 23.2226 88.2387 24.7113V30.0508H86.2524V24.7113Z" fill="#0044DD"/><path d="M94.5508 26.5158V17.6037H96.5374V20.8593H100.795V22.8696H96.5374V26.5158C96.5374 27.7441 97.1052 28.2281 97.9233 28.2281C98.7411 28.2281 99.3092 27.7623 99.3092 26.5158V26.274H101.295V26.5158C101.295 29.065 99.9267 30.293 97.9233 30.293C95.9196 30.293 94.5508 29.065 94.5508 26.5158Z" fill="#0044DD"/><path d="M108.977 24.4685C108.66 23.2402 107.758 22.6264 106.673 22.6264C105.554 22.6264 104.686 23.2592 104.369 24.4685H108.977ZM102.232 25.4543C102.232 22.6636 104.068 20.617 106.673 20.617C109.277 20.617 111.08 22.6636 111.08 25.4543V26.2358H104.318C104.586 27.5762 105.504 28.2829 106.673 28.2829C107.557 28.2829 108.208 28.0035 108.626 27.408H110.746C110.128 29.1571 108.626 30.292 106.673 30.292C104.068 30.292 102.232 28.2453 102.232 25.4543Z" fill="#0044DD"/><path d="M118.912 25.4552C118.912 23.8363 117.943 22.6832 116.491 22.6832C115.038 22.6832 114.053 23.8363 114.053 25.4552C114.053 27.0742 115.038 28.2277 116.491 28.2277C117.943 28.2277 118.912 27.0742 118.912 25.4552ZM112.05 25.3627C112.05 22.2183 114.154 20.6175 116.157 20.6175C117.342 20.6175 118.327 21.1759 118.912 22.1997V16.8408H120.898V25.3809C120.898 28.3575 119.095 30.293 116.507 30.293C113.887 30.293 112.05 28.2839 112.05 25.3627Z" fill="#0044DD"/><path d="M122.819 20.8593H124.806V30.0508H122.819V20.8593ZM122.502 18.1989C122.502 17.3425 123.053 16.7102 123.821 16.7102C124.589 16.7102 125.14 17.3425 125.14 18.1989C125.14 19.0548 124.589 19.6686 123.821 19.6686C123.053 19.6686 122.502 19.0548 122.502 18.1989Z" fill="#0044DD"/><path d="M126.727 25.2689C126.727 22.1993 128.363 20.6175 130.8 20.6175C133.238 20.6175 134.874 22.1802 134.874 25.2689V30.0508H132.887V25.2689C132.887 23.5202 132.053 22.6828 130.8 22.6828C129.548 22.6828 128.713 23.5202 128.713 25.2689V30.0508H126.727V25.2689Z" fill="#0044DD"/><path d="M21.8998 1.20924C21.9047 1.88169 21.4181 2.43097 20.8147 2.43551C20.2113 2.44047 19.7185 1.89863 19.7144 1.2266C19.7096 0.553741 20.1961 0.00446033 20.7995 -8.60691e-05C21.4029 -0.00545883 21.8958 0.536796 21.8998 1.20924Z" fill="#0044DD"/><path d="M2.18584 24.0077C2.18992 24.6801 1.7041 25.2298 1.10072 25.2343C0.497345 25.2393 0.00448055 24.6975 3.03087e-05 24.025C-0.00441993 23.3526 0.481769 22.8029 1.08515 22.7983C1.6889 22.7938 2.18176 23.3352 2.18584 24.0077Z" fill="#0044DD"/><path d="M6.66322 18.6669C7.75798 18.6756 8.65137 17.694 8.65841 16.4739C8.66694 15.2551 7.78542 14.2591 6.69104 14.2504C5.59702 14.2417 4.704 15.2233 4.69584 16.4434C4.6888 17.663 5.5692 18.6583 6.66322 18.6669Z" fill="#0044DD"/><path d="M16.026 8.01465C16.0341 9.2339 15.153 10.2295 14.059 10.2382C12.9646 10.2469 12.0716 9.26531 12.063 8.04565C12.0556 6.82599 12.936 5.83034 14.0308 5.82207C15.1252 5.81339 16.0182 6.79458 16.026 8.01465Z" fill="#0044DD"/><path d="M25.9516 8.11254C25.9924 9.33137 26.9117 10.2824 28.0054 10.2377C29.0987 10.1923 29.9527 9.16729 29.9119 7.94805C29.8712 6.72921 28.9514 5.7782 27.8582 5.82367C26.7641 5.86913 25.9108 6.89329 25.9516 8.11254Z" fill="#0044DD"/><path d="M21.8998 46.7898C21.9047 46.1174 21.4181 45.5685 20.8147 45.5635C20.2113 45.5586 19.7185 46.1004 19.7144 46.7733C19.7096 47.4453 20.1961 47.9946 20.7995 48C21.4029 48.0045 21.8958 47.4623 21.8998 46.7898Z" fill="#0044DD"/><path d="M6.66322 29.3334C7.75798 29.3243 8.65137 30.3063 8.65841 31.5255C8.66694 32.7452 7.78542 33.7409 6.69104 33.7499C5.59702 33.7586 4.704 32.777 4.69584 31.557C4.6888 30.3373 5.5692 29.3421 6.66322 29.3334Z" fill="#0044DD"/><path d="M16.026 39.9845C16.0341 38.7645 15.153 37.7696 14.059 37.7601C12.9646 37.7515 12.0716 38.7339 12.063 39.9527C12.0556 41.1728 12.936 42.168 14.0308 42.1767C15.1252 42.1858 16.0182 41.2046 16.026 39.9845Z" fill="#0044DD"/><path d="M25.9516 39.8863C25.9924 38.6671 26.9117 37.7161 28.0054 37.7607C29.0987 37.807 29.9527 38.8312 29.9119 40.0504C29.8712 41.2696 28.9514 42.2207 27.8582 42.1752C26.7641 42.1293 25.9108 41.1051 25.9516 39.8863Z" fill="#0044DD"/><path d="M21.3856 31.809C17.512 31.809 14.3724 28.3141 14.3635 23.9996C14.3724 19.6855 17.512 16.1911 21.3856 16.1911C22.9265 16.1911 24.352 16.7453 25.5098 17.6839C26.246 18.2811 27.2688 18.1654 27.913 17.4471L30.2234 14.8726C30.7144 14.325 30.6895 13.4294 30.1681 12.9169L30.1652 12.9144C29.4913 12.251 28.5282 12.0704 27.7112 12.4895C27.4253 12.6371 27.106 12.7181 26.77 12.7152C25.5428 12.7053 24.6101 11.4765 24.5634 9.71708C24.4996 7.28726 23.054 5.61214 21.0132 5.62785C19.2554 5.6419 17.3863 6.71401 17.2969 10.8433C17.2709 12.056 16.4688 13.1334 15.3915 13.3062C14.6008 13.4327 13.9014 13.0768 13.4322 12.4879C13.3863 12.4275 13.3399 12.3668 13.288 12.3122C13.2861 12.3097 13.2839 12.3081 13.282 12.3056L13.2813 12.3064C12.8363 11.8394 12.2036 11.591 11.5149 11.7485C10.7792 11.9163 10.1728 12.5697 10.0007 13.3839C9.81345 14.2766 10.1194 15.0933 10.6657 15.5996C11.2423 16.2932 11.5031 17.3157 11.0799 18.4163C10.7235 19.3454 9.85869 19.9054 8.95307 19.8984C8.82401 19.8976 9.14554 19.9005 8.80732 19.8976C6.7654 19.8798 5.16146 21.7256 5.24639 23.9996C5.16146 26.274 6.76614 28.1198 8.80806 28.1021C9.14554 28.0992 8.82438 28.1021 8.95307 28.1012C9.85869 28.0942 10.7235 28.6542 11.0799 29.5829C11.5031 30.684 11.2423 31.7061 10.6657 32.3992C10.1194 32.9063 9.81345 33.7226 10.0007 34.6157C10.1728 35.4304 10.7792 36.0834 11.5149 36.2512C12.2036 36.4086 12.8363 36.1603 13.2813 35.6932L13.282 35.694C13.2839 35.692 13.2861 35.6899 13.288 35.6874C13.3399 35.6325 13.3863 35.5725 13.4322 35.5114C13.9014 34.9232 14.6008 34.567 15.3915 34.6938C16.4688 34.8658 17.2709 35.9437 17.2969 37.1563C17.3863 41.286 19.2554 42.3577 21.0132 42.371C23.054 42.3879 24.4996 40.7128 24.5634 38.2826C24.6101 36.5231 25.5428 35.2944 26.77 35.2845C27.106 35.2816 27.4253 35.3634 27.7112 35.5097C28.5282 35.9296 29.4913 35.7478 30.1652 35.0861L30.1681 35.0828C30.6895 34.5694 30.7144 33.6746 30.2234 33.127L27.913 30.5521C27.2688 29.8342 26.246 29.7185 25.5098 30.3153C24.352 31.2543 22.9265 31.809 21.3856 31.809Z" fill="#0044DD"/></svg>